<?xml version="1.0" encoding="UTF-8" standalone="no"?>
<svg
   width="1000"
   height="1000"
   version="1.1"
   id="svg898"
   sodipodi:docname="netspeed-icon.svg"
   inkscape:version="1.1.2 (1:1.1+202202051313+0a00cf5339)"
   xmlns:inkscape="http://www.inkscape.org/namespaces/inkscape"
   xmlns:sodipodi="http://sodipodi.sourceforge.net/DTD/sodipodi-0.dtd"
   xmlns="http://www.w3.org/2000/svg"
   xmlns:svg="http://www.w3.org/2000/svg">
  <defs
     id="defs902" />
  <sodipodi:namedview
     id="namedview900"
     pagecolor="#ffffff"
     bordercolor="#666666"
     borderopacity="1.0"
     inkscape:pageshadow="2"
     inkscape:pageopacity="0.0"
     inkscape:pagecheckerboard="true"
     showgrid="false"
     inkscape:zoom="0.29654948"
     inkscape:cx="220.87376"
     inkscape:cy="1353.9056"
     inkscape:window-width="1852"
     inkscape:window-height="1136"
     inkscape:window-x="0"
     inkscape:window-y="0"
     inkscape:window-maximized="1"
     inkscape:current-layer="svg898" />
  <path
     d="m 214.28571,714.2857 c 0,-39.62054 -31.80803,-71.42857 -71.42857,-71.42857 -39.62053,0 -71.428569,31.80803 -71.428569,71.42857 0,39.62054 31.808039,71.42857 71.428569,71.42857 39.62054,0 71.42857,-31.80803 71.42857,-71.42857 z m 107.14286,-250 c 0,-39.62054 -31.80803,-71.42857 -71.42857,-71.42857 -39.62054,0 -71.42857,31.80803 -71.42857,71.42857 0,39.62054 31.80803,71.42857 71.42857,71.42857 39.62054,0 71.42857,-31.80803 71.42857,-71.42857 z m 238.83929,268.41518 56.3616,-213.16964 c 4.46429,-18.97322 -6.69642,-38.50447 -25.66964,-43.52679 -18.97321,-5.02232 -38.50446,6.69643 -43.52678,25.66964 l -56.36161,213.16965 c -44.08482,3.34821 -82.58929,34.04017 -94.86607,79.24107 -15.06697,57.47768 19.53125,116.07143 76.45089,131.13839 57.47768,15.06696 116.07143,-19.53125 131.13839,-76.45089 11.71875,-45.2009 -7.25446,-90.95982 -43.52678,-116.07143 z M 928.57143,714.2857 c 0,-39.62054 -31.80804,-71.42857 -71.42857,-71.42857 -39.62054,0 -71.42857,31.80803 -71.42857,71.42857 0,39.62054 31.80803,71.42857 71.42857,71.42857 39.62053,0 71.42857,-31.80803 71.42857,-71.42857 z M 571.42857,357.14284 c 0,-39.62053 -31.80803,-71.42857 -71.42857,-71.42857 -39.62054,0 -71.42857,31.80804 -71.42857,71.42857 0,39.62054 31.80803,71.42857 71.42857,71.42857 39.62054,0 71.42857,-31.80803 71.42857,-71.42857 z m 250,107.14286 c 0,-39.62054 -31.80803,-71.42857 -71.42857,-71.42857 -39.62054,0 -71.42857,31.80803 -71.42857,71.42857 0,39.62054 31.80803,71.42857 71.42857,71.42857 39.62054,0 71.42857,-31.80803 71.42857,-71.42857 z m 178.57143,250 c 0,95.98214 -27.34375,188.61607 -78.68304,269.5313 C 914.62054,993.8616 903.45982,1000 891.18304,1000 H 108.81696 C 96.540179,1000 85.379464,993.8616 78.683036,983.817 27.34375,903.45981 0,810.26784 0,714.2857 c 0,-275.66964 224.33036,-500 500,-500 275.66964,0 500,224.33036 500,500 z"
     id="path896"
     style="stroke-width:0.558036;fill:#ffffff;fill-opacity:1" />
</svg>
